<mxfile host="app.diagrams.net" modified="2024-03-28T09:46:10.880Z" agent="Mozilla/5.0 (Windows NT 10.0; Win64; x64) AppleWebKit/537.36 (KHTML, like Gecko) Chrome/123.0.0.0 Safari/537.36" version="24.2.0" etag="8YG8W9mN_OX1BRf2qd6l" type="github">
  <diagram name="Page-1" id="tDKYsKJevt6Do6w1yq-I">
    <mxGraphModel>
      <root>
        <mxCell id="0" />
        <mxCell id="1" parent="0" />
      </root>
    </mxGraphModel>
  </diagram>
</mxfile>
